<svg width="938" height="227" viewBox="0 0 938 227" fill="none" 
    xmlns="http://www.w3.org/2000/svg">
    <path fill-rule="evenodd" clip-rule="evenodd" d="M904.5 140.284C904.5 140.56 904.276 140.784 904 140.784C896.235 140.784 892.096 142.499 885.479 145.243C884.962 145.457 884.429 145.678 883.879 145.904C882.957 146.284 881.907 146.05 880.858 145.512C879.799 144.968 878.642 144.066 877.437 142.937C875.022 140.676 872.319 137.416 869.681 134.004C867.912 131.716 866.16 129.344 864.538 127.147C863.74 126.067 862.974 125.029 862.252 124.064C861.153 122.596 860.158 121.297 859.305 120.264C858.443 119.22 857.756 118.484 857.27 118.112C844.304 108.197 826.184 116.271 823.081 130.236C822.317 133.676 821.492 136.261 820.594 138.156C819.697 140.048 818.709 141.293 817.596 142C815.323 143.444 812.799 142.501 810.231 141.122C809.465 140.71 808.686 140.256 807.889 139.79C805.925 138.644 803.847 137.432 801.566 136.632C798.406 135.523 794.935 135.247 791.06 137.184C789.877 137.776 788.211 139.187 786.343 141.027C784.49 142.852 782.485 145.051 780.63 147.168C778.779 149.281 777.082 151.305 775.843 152.784L775.838 152.79C775.219 153.529 774.712 154.134 774.358 154.544C774.182 154.747 774.038 154.91 773.935 155.018C773.887 155.069 773.832 155.123 773.781 155.165L773.78 155.166C773.763 155.179 773.701 155.231 773.614 155.264C773.58 155.276 773.431 155.332 773.252 155.264C773.015 155.174 772.944 154.963 772.93 154.854C772.311 149.902 769.533 144.563 765.621 140.662C761.706 136.759 756.733 134.368 751.74 135.136C743.661 136.379 738.995 141.254 735.106 147.12C733.862 148.997 732.711 150.952 731.553 152.92C730.89 154.047 730.224 155.178 729.537 156.301C727.662 159.366 725.648 162.332 723.162 164.817C722.855 165.125 722.512 165.322 722.136 165.393C721.762 165.463 721.401 165.4 721.071 165.266C720.434 165.009 719.836 164.458 719.306 163.899C719.035 163.613 718.766 163.308 718.508 163.014L718.506 163.012C718.246 162.717 717.998 162.434 717.755 162.179C717.511 161.922 717.285 161.705 717.073 161.539C716.858 161.371 716.683 161.276 716.546 161.237C714.67 160.701 712.151 160.578 709.597 160.717C707.05 160.856 704.513 161.251 702.619 161.725C699.58 162.485 695.722 164.484 691.414 167.031C689.076 168.413 686.644 169.933 684.157 171.488C682.049 172.805 679.902 174.147 677.738 175.451C673.055 178.275 668.359 180.88 664.073 182.503C659.806 184.118 655.841 184.799 652.674 183.633C650.253 182.74 648.116 181.788 646.105 180.864C645.752 180.702 645.403 180.542 645.057 180.382C643.43 179.631 641.873 178.913 640.282 178.269C636.441 176.715 632.42 175.603 626.893 175.603C624.352 175.603 622.918 176.146 621.967 176.818C621.485 177.159 621.109 177.544 620.766 177.946C620.616 178.121 620.476 178.296 620.333 178.474L620.266 178.557C620.102 178.761 619.933 178.968 619.756 179.164C619.399 179.56 618.992 179.933 618.457 180.201C617.919 180.47 617.283 180.618 616.488 180.612C614.925 180.598 612.704 179.983 609.281 178.462C604.167 176.189 599.576 172.549 595.041 168.774C594.511 168.333 593.981 167.89 593.452 167.447C589.435 164.084 585.415 160.718 581.019 158.124C579.581 157.275 577.038 155.422 573.826 153.082C572.707 152.266 571.506 151.391 570.243 150.479C565.332 146.933 559.431 142.792 553.528 139.256C547.615 135.715 541.743 132.807 536.884 131.698C534.456 131.144 532.324 131.049 530.582 131.514C528.862 131.974 527.499 132.986 526.584 134.714C523.827 139.923 524.022 145.656 524.222 151.513C524.238 151.97 524.253 152.428 524.267 152.887C524.462 159.166 524.391 165.526 520.089 171.058C514.097 178.762 509.877 188.292 509.877 198.316C509.877 200.865 509.135 208.416 508.019 215.005C507.461 218.3 506.804 221.386 506.09 223.5C505.738 224.545 505.352 225.411 504.923 225.94C504.708 226.204 504.437 226.442 504.098 226.527C503.724 226.62 503.376 226.502 503.092 226.266C500.369 223.996 495.831 222.873 490.343 222.317C485.648 221.842 480.348 221.788 475.051 221.734C474.18 221.725 473.31 221.717 472.442 221.706C466.314 221.63 460.318 221.461 455.501 220.519C450.714 219.583 446.904 217.847 445.407 214.478C444.476 212.386 444.088 210.363 443.819 208.524C443.757 208.102 443.701 207.693 443.648 207.296C443.465 205.942 443.302 204.735 442.966 203.656C442.544 202.297 441.861 201.199 440.539 200.383C439.193 199.553 437.138 198.986 433.908 198.816C429.332 198.575 426.231 197.762 424.128 196.381C421.999 194.982 420.951 193.041 420.395 190.697C419.915 188.676 419.793 186.312 419.659 183.709C419.639 183.333 419.62 182.952 419.599 182.566C419.431 179.489 419.175 176.059 418.295 172.316C418.153 171.713 418.008 170.821 417.844 169.807C417.796 169.511 417.746 169.205 417.694 168.892C417.463 167.493 417.185 165.942 416.819 164.535C416.449 163.114 416.003 161.897 415.459 161.129C415.19 160.749 414.922 160.516 414.664 160.404C414.422 160.299 414.148 160.283 413.804 160.416C405.485 163.651 396.93 165.916 388.349 168.186L387.797 168.332C381.018 170.127 376.363 171.098 373.078 171.242C369.776 171.387 367.75 170.699 366.356 169.067C365.677 168.272 365.172 167.28 364.732 166.128C364.291 164.976 363.902 163.632 363.47 162.121L363.416 161.932C362.557 158.934 361.496 155.227 359.487 150.807C357.75 146.985 355.341 144.365 352.591 142.019C351.36 140.968 350.065 139.977 348.728 138.953C348.568 138.829 348.406 138.706 348.244 138.581C346.739 137.427 345.19 136.221 343.651 134.854C342.534 133.861 340.772 132.82 338.7 131.715C337.791 131.231 336.807 130.726 335.8 130.21C334.565 129.576 333.297 128.925 332.094 128.274C329.883 127.078 327.767 125.815 326.156 124.475C324.56 123.148 323.369 121.672 323.176 120.03C322.787 116.731 321.482 115.21 319.809 114.661C318.064 114.088 315.749 114.507 313.23 115.513C308.219 117.513 302.829 121.651 300.61 123.425C297.905 125.59 295.228 127.7 292.587 129.782C273.243 145.034 255.806 158.782 243.022 181.155L242.926 181.322C241.754 183.376 237.684 190.506 233.74 195.098C232.724 196.282 231.701 197.315 230.724 198.052C229.763 198.777 228.773 199.272 227.837 199.251C226.835 199.23 226.04 198.629 225.494 197.516C224.96 196.428 224.63 194.796 224.517 192.538C224.178 185.759 221.685 178.513 218.463 171.476C215.946 165.979 213 160.642 210.315 155.777C209.562 154.414 208.831 153.088 208.134 151.806C195.019 127.657 180.479 102.775 157.67 86.852C156.015 85.6967 154.536 84.6901 153.194 83.7771C149.62 81.3449 147.022 79.5772 144.684 77.4343C141.447 74.4668 138.704 70.7823 134.474 63.645C134.162 63.1179 133.848 62.587 133.533 62.0535C129.217 54.7479 124.606 46.9416 118.92 41.558C115.878 38.6775 112.55 36.5139 108.823 35.4916C105.102 34.4711 100.947 34.5775 96.2255 36.2944C94.5808 36.8925 92.8215 38.1058 91.0311 39.7129C89.2457 41.3155 87.4563 43.285 85.7497 45.3627C82.965 48.7529 80.4245 52.4003 78.4942 55.1718C78.0568 55.7999 77.6506 56.383 77.2801 56.9079C63.4955 76.436 45.8332 91.6632 27.9628 107.07C25.0851 109.551 22.202 112.036 19.3289 114.545C19.1208 114.727 18.805 114.706 18.6233 114.498C18.4418 114.29 18.4631 113.974 18.6711 113.792C21.553 111.276 24.4414 108.785 27.3216 106.302C45.1965 90.8901 62.7552 75.7508 76.4631 56.3313C76.8283 55.8139 77.2305 55.2365 77.665 54.6126C79.5949 51.8415 82.1641 48.1524 84.9769 44.728C86.7013 42.6288 88.5262 40.6175 90.3631 38.9687C92.1949 37.3244 94.0657 36.0157 95.8838 35.3546C100.782 33.5736 105.149 33.447 109.087 34.5272C113.018 35.6054 116.486 37.876 119.607 40.8318C125.401 46.317 130.081 54.2422 134.377 61.5149C134.698 62.0591 135.017 62.5996 135.335 63.1352C139.549 70.2467 142.232 73.8301 145.36 76.6972C147.641 78.7876 150.155 80.4988 153.698 82.9097C155.049 83.8289 156.549 84.8497 158.242 86.032C181.269 102.107 195.905 127.194 209.013 151.329C209.703 152.599 210.43 153.916 211.179 155.273C213.867 160.143 216.837 165.524 219.372 171.059C222.612 178.137 225.167 185.52 225.516 192.488C225.626 194.7 225.948 196.17 226.392 197.076C226.824 197.957 227.333 198.24 227.859 198.252C228.45 198.264 229.212 197.94 230.122 197.253C231.018 196.578 231.987 195.605 232.982 194.447C236.86 189.931 240.89 182.871 242.063 180.817L242.153 180.658C255.04 158.106 272.637 144.235 291.973 128.992C294.614 126.911 297.287 124.803 299.985 122.644C302.201 120.872 307.695 116.645 312.86 114.584C315.429 113.558 318.026 113.023 320.121 113.711C322.289 114.423 323.753 116.38 324.169 119.914C324.315 121.159 325.249 122.421 326.795 123.706C328.327 124.98 330.371 126.205 332.57 127.395C333.789 128.055 335.018 128.685 336.228 129.305C337.228 129.817 338.214 130.323 339.171 130.833C341.239 131.936 343.099 133.025 344.316 134.107C345.825 135.448 347.35 136.634 348.853 137.788C349.015 137.912 349.177 138.036 349.338 138.16C350.672 139.182 351.988 140.19 353.24 141.258C356.057 143.662 358.58 146.394 360.398 150.394C362.438 154.881 363.516 158.648 364.374 161.648L364.431 161.846C364.866 163.366 365.244 164.667 365.666 165.771C366.087 166.873 366.542 167.745 367.116 168.418C368.229 169.72 369.888 170.381 373.035 170.243C376.199 170.104 380.758 169.161 387.541 167.366L388.071 167.226C396.668 164.95 405.176 162.699 413.442 159.484C414.01 159.263 414.558 159.269 415.061 159.486C415.547 159.697 415.946 160.086 416.275 160.551C416.93 161.475 417.411 162.842 417.786 164.283C418.165 165.737 418.449 167.326 418.681 168.729C418.735 169.057 418.787 169.374 418.836 169.676C418.999 170.68 419.135 171.522 419.268 172.087C420.17 175.919 420.429 179.421 420.597 182.512C420.618 182.902 420.638 183.286 420.658 183.661C420.794 186.279 420.911 188.541 421.368 190.466C421.883 192.638 422.819 194.324 424.677 195.545C426.562 196.783 429.453 197.58 433.961 197.817C437.263 197.991 439.512 198.575 441.064 199.532C442.639 200.504 443.445 201.829 443.921 203.359C444.284 204.526 444.462 205.846 444.647 207.217C444.699 207.601 444.751 207.989 444.808 208.379C445.073 210.187 445.445 212.104 446.32 214.072C447.602 216.955 450.95 218.61 455.693 219.538C460.407 220.46 466.314 220.63 472.454 220.706C473.317 220.717 474.185 220.725 475.054 220.734C480.347 220.788 485.699 220.842 490.444 221.322C495.947 221.88 500.758 223.019 503.733 225.498C503.826 225.576 503.855 225.557 503.855 225.556C503.891 225.548 503.992 225.5 504.147 225.309C504.455 224.929 504.795 224.21 505.143 223.18C505.83 221.145 506.476 218.123 507.033 214.838C508.145 208.27 508.877 200.782 508.877 198.316C508.877 188.012 513.211 178.272 519.299 170.444C523.359 165.224 523.463 159.207 523.268 152.918C523.253 152.448 523.237 151.976 523.221 151.503C523.02 145.699 522.812 139.702 525.7 134.246C526.75 132.264 528.344 131.077 530.324 130.548C532.284 130.024 534.596 130.15 537.106 130.723C542.126 131.869 548.11 134.846 554.041 138.398C559.983 141.957 565.912 146.119 570.828 149.668C572.119 150.601 573.338 151.488 574.467 152.311C577.656 154.635 580.134 156.44 581.527 157.263C585.999 159.902 590.086 163.324 594.095 166.681C594.625 167.124 595.153 167.566 595.681 168.005C600.22 171.784 604.715 175.338 609.687 177.548C613.09 179.061 615.151 179.6 616.497 179.612C617.156 179.617 617.632 179.495 618.009 179.306C618.389 179.116 618.7 178.842 619.013 178.495C619.17 178.321 619.323 178.133 619.487 177.93C619.649 177.729 619.821 177.513 620.006 177.297C620.378 176.861 620.815 176.408 621.39 176.002C622.551 175.181 624.202 174.603 626.893 174.603C632.576 174.603 636.726 175.751 640.657 177.342C642.273 177.996 643.855 178.726 645.484 179.478C645.828 179.636 646.173 179.796 646.522 179.956C648.527 180.876 650.636 181.816 653.02 182.694C655.833 183.73 659.504 183.163 663.719 181.567C667.916 179.979 672.547 177.413 677.222 174.595C679.345 173.315 681.49 171.975 683.604 170.654C686.113 169.086 688.577 167.547 690.905 166.17C695.208 163.625 699.18 161.554 702.376 160.755C704.336 160.265 706.937 159.86 709.543 159.719C712.14 159.577 714.788 159.695 716.82 160.275C717.133 160.365 717.425 160.545 717.689 160.752C717.956 160.961 718.222 161.218 718.48 161.49C718.736 161.759 718.995 162.054 719.25 162.344L719.259 162.354C719.519 162.65 719.775 162.94 720.032 163.211C720.558 163.765 721.028 164.17 721.446 164.339C721.644 164.419 721.808 164.437 721.951 164.41C722.093 164.383 722.261 164.304 722.455 164.11C724.855 161.71 726.82 158.825 728.684 155.779C729.351 154.688 730.009 153.571 730.669 152.45C731.838 150.463 733.016 148.463 734.272 146.568C738.227 140.603 743.102 135.453 751.588 134.147C757.007 133.314 762.28 135.92 766.327 139.954C770.109 143.725 772.886 148.806 773.765 153.699C774.1 153.307 774.542 152.779 775.071 152.148L775.078 152.14C776.317 150.661 778.019 148.63 779.878 146.509C781.739 144.385 783.763 142.165 785.641 140.315C787.504 138.479 789.271 136.96 790.612 136.29C794.783 134.205 798.544 134.512 801.897 135.688C804.275 136.522 806.488 137.813 808.48 138.976C809.256 139.429 809.999 139.862 810.704 140.241C813.304 141.637 815.321 142.26 817.059 141.156C817.951 140.589 818.835 139.531 819.69 137.727C820.543 135.927 821.348 133.423 822.105 130.019C825.356 115.387 844.293 106.93 857.877 117.318C858.464 117.766 859.216 118.585 860.076 119.627C860.945 120.679 861.952 121.994 863.052 123.465C863.782 124.44 864.552 125.483 865.352 126.566C866.971 128.758 868.709 131.113 870.472 133.393C873.106 136.799 875.768 140.005 878.12 142.208C879.298 143.31 880.376 144.14 881.315 144.622C882.265 145.109 882.979 145.194 883.498 144.98C884.052 144.752 884.589 144.529 885.111 144.312C891.729 141.568 896.032 139.784 904 139.784C904.276 139.784 904.5 140.007 904.5 140.284Z" fill="white"/>
    <path d="M74.0859 10.0002H76.8736C78.5639 10.0002 79.3274 9.15856 79.3274 8.0435C79.3274 6.91779 78.5391 6.28214 77.8182 6.24308V6.17205C78.4858 6.0016 79.0433 5.54705 79.0433 4.63796C79.0433 3.56197 78.2976 2.72745 76.7493 2.72745H74.0859V10.0002ZM75.1832 9.05913V6.72958H76.8061C77.6868 6.72958 78.2372 7.29776 78.2372 7.99023C78.2372 8.60103 77.8217 9.05913 76.767 9.05913H75.1832ZM75.1832 5.87376V3.6614H76.6818C77.5518 3.6614 77.9673 4.1195 77.9673 4.72319C77.9673 5.42631 77.392 5.87376 76.6534 5.87376H75.1832Z" fill="white"/>
    <path d="M82.1289 10.0002H86.7312V9.05558H83.2262V6.82901H86.4506V5.88796H83.2262V3.67205H86.6886V2.72745H82.1289V10.0002Z" fill="white"/>
    <path d="M89.1039 10.0002H89.4164C91.0712 10.0002 91.4689 8.77149 91.5648 6.43484L91.6784 3.65785H94.1607V10.0002H95.2438V2.72745H90.6451L90.5208 6.14364C90.4426 8.24947 90.187 9.02006 89.3169 9.04137L89.1039 9.04847V10.0002Z" fill="white"/>
    <path d="M98.3418 2.72745V10.0002H99.3503L103.047 4.66637H103.115V10.0002H104.212V2.72745H103.196L99.4959 8.06836H99.4284V2.72745H98.3418Z" fill="white"/>
    <path d="M111.62 10.0002H112.959L109.958 6.0158L112.977 2.72745H111.616L108.786 5.79918H108.41V2.72745H107.312V10.0002H108.41V6.74023H109.163L111.62 10.0002Z" fill="white"/>
    <path d="M115.57 2.72745V10.0002H116.579L120.276 4.66637H120.343V10.0002H121.44V2.72745H120.425L116.724 8.06836H116.657V2.72745H115.57Z" fill="white"/>
    <path d="M124.541 2.72745V10.0002H125.55L129.246 4.66637H129.314V10.0002H130.411V2.72745H129.395L125.695 8.06836H125.628V2.72745H124.541ZM128.174 0.880859C128.174 1.23952 127.975 1.55558 127.478 1.55558C126.974 1.55558 126.785 1.23597 126.785 0.880859H125.915C125.915 1.67987 126.523 2.23029 127.478 2.23029C128.44 2.23029 129.047 1.67987 129.047 0.880859H128.174Z" fill="white"/>
    <path d="M69.5371 22.0002H70.6344V18.829H74.2601V22.0002H75.361V14.7275H74.2601V17.888H70.6344V14.7275H69.5371V22.0002Z" fill="white"/>
    <path d="M84.7765 18.3638C84.7765 16.0378 83.3844 14.628 81.5023 14.628C79.6131 14.628 78.2246 16.0378 78.2246 18.3638C78.2246 20.6863 79.6131 22.0996 81.5023 22.0996C83.3844 22.0996 84.7765 20.6898 84.7765 18.3638ZM83.6898 18.3638C83.6898 20.1358 82.7523 21.0982 81.5023 21.0982C80.2488 21.0982 79.3148 20.1358 79.3148 18.3638C79.3148 16.5918 80.2488 15.6294 81.5023 15.6294C82.7523 15.6294 83.6898 16.5918 83.6898 18.3638Z" fill="white"/>
    <path d="M87.6445 22.0002H90.4322C92.1225 22.0002 92.886 21.1586 92.886 20.0435C92.886 18.9178 92.0977 18.2821 91.3768 18.2431V18.1721C92.0444 18.0016 92.6019 17.5471 92.6019 16.638C92.6019 15.562 91.8562 14.7275 90.3079 14.7275H87.6445V22.0002ZM88.7418 21.0591V18.7296H90.3647C91.2454 18.7296 91.7958 19.2978 91.7958 19.9902C91.7958 20.601 91.3803 21.0591 90.3256 21.0591H88.7418ZM88.7418 17.8738V15.6614H90.2404C91.1104 15.6614 91.5259 16.1195 91.5259 16.7232C91.5259 17.4263 90.9506 17.8738 90.212 17.8738H88.7418Z" fill="white"/>
    <path d="M100.222 14.7275H95.6875V22.0002H96.7848V15.6721H100.222V14.7275Z" fill="white"/>
    <path d="M108.974 18.3638C108.974 16.0378 107.582 14.628 105.7 14.628C103.81 14.628 102.422 16.0378 102.422 18.3638C102.422 20.6863 103.81 22.0996 105.7 22.0996C107.582 22.0996 108.974 20.6898 108.974 18.3638ZM107.887 18.3638C107.887 20.1358 106.95 21.0982 105.7 21.0982C104.446 21.0982 103.512 20.1358 103.512 18.3638C103.512 16.5918 104.446 15.6294 105.7 15.6294C106.95 15.6294 107.887 16.5918 107.887 18.3638Z" fill="white"/>
    <path d="M111.842 22.0002H112.939V19.4434H114.431C116.117 19.4434 116.952 18.4242 116.952 17.0819C116.952 15.7431 116.124 14.7275 114.434 14.7275H111.842V22.0002ZM112.939 18.513V15.6685H114.317C115.404 15.6685 115.847 16.258 115.847 17.0819C115.847 17.9057 115.404 18.513 114.331 18.513H112.939Z" fill="white"/>
    <path d="M126.056 18.3638C126.056 16.0378 124.664 14.628 122.782 14.628C120.892 14.628 119.504 16.0378 119.504 18.3638C119.504 20.6863 120.892 22.0996 122.782 22.0996C124.664 22.0996 126.056 20.6898 126.056 18.3638ZM124.969 18.3638C124.969 20.1358 124.032 21.0982 122.782 21.0982C121.528 21.0982 120.594 20.1358 120.594 18.3638C120.594 16.5918 121.528 15.6294 122.782 15.6294C124.032 15.6294 124.969 16.5918 124.969 18.3638Z" fill="white"/>
    <path d="M128.373 23.758H129.425V22.0002H134.307V23.7473H135.358V21.0698H134.535V14.7275H130.05L129.879 17.7992C129.769 19.8233 129.339 20.6578 128.853 21.0698H128.373V23.758ZM130.145 21.0698C130.561 20.4057 130.841 19.3368 130.93 17.7992L131.044 15.6721H133.483V21.0698H130.145Z" fill="white"/>
    <path d="M5.87984 125.727H0.269043V133H1.36279V126.665H4.78609V133H5.87984V125.727Z" fill="white"/>
    <path d="M15.0982 128.092C14.8497 126.537 13.6316 125.628 12.094 125.628C10.2119 125.628 8.82337 127.038 8.82337 129.364C8.82337 131.69 10.2048 133.1 12.094 133.1C13.692 133.1 14.8603 132.098 15.0982 130.66L13.9903 130.656C13.8021 131.587 13.0208 132.098 12.1011 132.098C10.8546 132.098 9.91357 131.143 9.91357 129.364C9.91357 127.599 10.8511 126.629 12.1046 126.629C13.0315 126.629 13.8092 127.151 13.9903 128.092H15.0982Z" fill="white"/>
    <path d="M22.2188 133H23.5576L20.5569 129.016L23.5753 125.727H22.2152L19.385 128.799H19.0086V125.727H17.9113V133H19.0086V129.74H19.7614L22.2188 133Z" fill="white"/>
    <path d="M32.1252 129.364C32.1252 127.038 30.7332 125.628 28.8511 125.628C26.9619 125.628 25.5734 127.038 25.5734 129.364C25.5734 131.686 26.9619 133.1 28.8511 133.1C30.7332 133.1 32.1252 131.69 32.1252 129.364ZM31.0386 129.364C31.0386 131.136 30.1011 132.098 28.8511 132.098C27.5975 132.098 26.6636 131.136 26.6636 129.364C26.6636 127.592 27.5975 126.629 28.8511 126.629C30.1011 126.629 31.0386 127.592 31.0386 129.364Z" fill="white"/>
    <path d="M34.9933 133H37.7809C39.4713 133 40.2348 132.158 40.2348 131.043C40.2348 129.918 39.4464 129.282 38.7255 129.243V129.172C39.3932 129.002 39.9507 128.547 39.9507 127.638C39.9507 126.562 39.2049 125.727 37.6566 125.727H34.9933V133ZM36.0906 132.059V129.729H37.7135C38.5941 129.729 39.1446 130.298 39.1446 130.99C39.1446 131.601 38.7291 132.059 37.6744 132.059H36.0906ZM36.0906 128.874V126.661H37.5892C38.4592 126.661 38.8747 127.119 38.8747 127.723C38.8747 128.426 38.2994 128.874 37.5608 128.874H36.0906Z" fill="white"/>
    <path d="M163.483 153.672H165.749V160H166.843V153.672H169.112V152.728H163.483V153.672Z" fill="white"/>
    <path d="M171.856 160H174.643C176.334 160 177.097 159.159 177.097 158.044C177.097 156.918 176.309 156.282 175.588 156.243V156.172C176.256 156.002 176.813 155.547 176.813 154.638C176.813 153.562 176.067 152.728 174.519 152.728H171.856V160ZM172.953 159.059V156.73H174.576C175.457 156.73 176.007 157.298 176.007 157.99C176.007 158.601 175.592 159.059 174.537 159.059H172.953ZM172.953 155.874V153.661H174.452C175.322 153.661 175.737 154.12 175.737 154.723C175.737 155.426 175.162 155.874 174.423 155.874H172.953Z" fill="white"/>
    <path d="M179.899 160H184.501V159.056H180.996V156.829H184.22V155.888H180.996V153.672H184.458V152.728H179.899V160Z" fill="white"/>
    <path d="M187.424 160H188.521V157.443H190.013C191.7 157.443 192.534 156.424 192.534 155.082C192.534 153.743 191.707 152.728 190.016 152.728H187.424V160ZM188.521 156.513V153.669H189.899C190.986 153.669 191.43 154.258 191.43 155.082C191.43 155.906 190.986 156.513 189.913 156.513H188.521Z" fill="white"/>
    <path d="M196.429 155.661V152.728H195.328V160H198.051C199.671 160 200.598 159.098 200.594 157.795C200.598 156.495 199.671 155.661 198.051 155.661H196.429ZM196.429 156.584H198.051C198.992 156.584 199.511 157.124 199.511 157.781C199.511 158.456 198.992 159.077 198.051 159.077H196.429V156.584Z" fill="white"/>
    <path d="M261.65 182V174.727H259.057C257.371 174.727 256.54 175.668 256.54 177.007C256.54 177.984 256.984 178.726 257.875 179.056L256.263 182H257.513L258.99 179.248C259.015 179.248 259.036 179.248 259.061 179.248H260.552V182H261.65ZM260.552 178.303H259.16C258.092 178.303 257.644 177.828 257.644 177.007C257.644 176.183 258.092 175.668 259.175 175.668H260.552V178.303Z" fill="white"/>
    <path d="M264.744 182H265.842V179.443H267.333C269.02 179.443 269.854 178.424 269.854 177.082C269.854 175.743 269.027 174.727 267.337 174.727H264.744V182ZM265.842 178.513V175.668H267.219C268.306 175.668 268.75 176.258 268.75 177.082C268.75 177.906 268.306 178.513 267.234 178.513H265.842Z" fill="white"/>
    <path d="M278.958 178.364C278.958 176.038 277.566 174.628 275.684 174.628C273.795 174.628 272.406 176.038 272.406 178.364C272.406 180.686 273.795 182.1 275.684 182.1C277.566 182.1 278.958 180.69 278.958 178.364ZM277.872 178.364C277.872 180.136 276.934 181.098 275.684 181.098C274.43 181.098 273.497 180.136 273.497 178.364C273.497 176.592 274.43 175.629 275.684 175.629C276.934 175.629 277.872 176.592 277.872 178.364Z" fill="white"/>
    <path d="M287.867 177.092C287.618 175.537 286.4 174.628 284.862 174.628C282.98 174.628 281.592 176.038 281.592 178.364C281.592 180.69 282.973 182.1 284.862 182.1C286.46 182.1 287.629 181.098 287.867 179.66L286.759 179.656C286.571 180.587 285.789 181.098 284.87 181.098C283.623 181.098 282.682 180.143 282.682 178.364C282.682 176.599 283.62 175.629 284.873 175.629C285.8 175.629 286.578 176.151 286.759 177.092H287.867Z" fill="white"/>
    <path d="M290.129 182H290.442C292.097 182 292.494 180.771 292.59 178.435L292.704 175.658H295.186V182H296.269V174.727H291.671L291.546 178.144C291.468 180.249 291.212 181.02 290.342 181.041L290.129 181.048V182Z" fill="white"/>
    <path d="M299.982 182L300.649 180.075H303.49L304.154 182H305.319L302.702 174.727H301.434L298.817 182H299.982ZM300.969 179.152L302.041 176.048H302.098L303.171 179.152H300.969Z" fill="white"/>
    <path d="M307.869 182H310.657C312.347 182 313.111 181.158 313.111 180.043C313.111 178.918 312.322 178.282 311.601 178.243V178.172C312.269 178.002 312.827 177.547 312.827 176.638C312.827 175.562 312.081 174.727 310.533 174.727H307.869V182ZM308.967 181.059V178.729H310.589C311.47 178.729 312.021 179.298 312.021 179.99C312.021 180.601 311.605 181.059 310.55 181.059H308.967ZM308.967 177.874V175.661H310.465C311.335 175.661 311.751 176.119 311.751 176.723C311.751 177.426 311.175 177.874 310.437 177.874H308.967Z" fill="white"/>
    <path d="M315.362 182H315.674C317.329 182 317.727 180.771 317.823 178.435L317.936 175.658H320.419V182H321.502V174.727H316.903L316.779 178.144C316.701 180.249 316.445 181.02 315.575 181.041L315.362 181.048V182Z" fill="white"/>
    <path d="M325.708 177.661V174.727H324.607V182H327.331C328.95 182 329.877 181.098 329.873 179.795C329.877 178.495 328.95 177.661 327.331 177.661H325.708ZM325.708 178.584H327.331C328.272 178.584 328.79 179.124 328.79 179.781C328.79 180.455 328.272 181.077 327.331 181.077H325.708V178.584Z" fill="white"/>
    <path d="M339.799 114.727V122H340.843V116.734H340.91L343.055 121.989H343.922L346.067 116.737H346.134V122H347.178V114.727H345.846L343.531 120.381H343.446L341.131 114.727H339.799Z" fill="white"/>
    <path d="M351.073 122L351.741 120.075H354.582L355.246 122H356.411L353.794 114.727H352.526L349.909 122H351.073ZM352.061 119.152L353.133 116.048H353.19L354.262 119.152H352.061Z" fill="white"/>
    <path d="M358.961 122H360.058V118.829H363.684V122H364.785V114.727H363.684V117.888H360.058V114.727H358.961V122Z" fill="white"/>
    <path d="M367.524 115.672H369.79V122H370.884V115.672H373.153V114.727H367.524V115.672Z" fill="white"/>
    <path d="M376.411 122.1H376.909C378.045 122.1 378.421 121.464 378.741 120.739L381.255 114.727H380.105L378.407 118.932L376.5 114.727H375.335L377.892 120.185L377.789 120.445C377.633 120.825 377.392 121.134 376.848 121.134H376.411V122.1Z" fill="white"/>
    <path d="M383.793 122H384.89V119.443H386.382C388.069 119.443 388.903 118.424 388.903 117.082C388.903 115.743 388.076 114.727 386.385 114.727H383.793V122ZM384.89 118.513V115.668H386.268C387.355 115.668 387.799 116.258 387.799 117.082C387.799 117.906 387.355 118.513 386.282 118.513H384.89Z" fill="white"/>
    <path d="M398.007 118.364C398.007 116.038 396.615 114.628 394.733 114.628C392.844 114.628 391.455 116.038 391.455 118.364C391.455 120.686 392.844 122.1 394.733 122.1C396.615 122.1 398.007 120.69 398.007 118.364ZM396.92 118.364C396.92 120.136 395.983 121.098 394.733 121.098C393.479 121.098 392.545 120.136 392.545 118.364C392.545 116.592 393.479 115.629 394.733 115.629C395.983 115.629 396.92 116.592 396.92 118.364Z" fill="white"/>
    <path d="M400.875 122H403.663C405.353 122 406.116 121.158 406.116 120.043C406.116 118.918 405.328 118.282 404.607 118.243V118.172C405.275 118.002 405.832 117.547 405.832 116.638C405.832 115.562 405.087 114.727 403.538 114.727H400.875V122ZM401.972 121.059V118.729H403.595C404.476 118.729 405.026 119.298 405.026 119.99C405.026 120.601 404.611 121.059 403.556 121.059H401.972ZM401.972 117.874V115.661H403.471C404.341 115.661 404.756 116.119 404.756 116.723C404.756 117.426 404.181 117.874 403.442 117.874H401.972Z" fill="white"/>
    <path d="M415.235 118.364C415.235 116.038 413.843 114.628 411.961 114.628C410.072 114.628 408.684 116.038 408.684 118.364C408.684 120.686 410.072 122.1 411.961 122.1C413.843 122.1 415.235 120.69 415.235 118.364ZM414.149 118.364C414.149 120.136 413.211 121.098 411.961 121.098C410.708 121.098 409.774 120.136 409.774 118.364C409.774 116.592 410.708 115.629 411.961 115.629C413.211 115.629 414.149 116.592 414.149 118.364Z" fill="white"/>
    <path d="M396.619 150H397.958L394.957 146.016L397.976 142.727H396.616L393.785 145.799H393.409V142.727H392.312V150H393.409V146.74H394.162L396.619 150Z" fill="white"/>
    <path d="M406.525 146.364C406.525 144.038 405.133 142.628 403.251 142.628C401.362 142.628 399.974 144.038 399.974 146.364C399.974 148.686 401.362 150.1 403.251 150.1C405.133 150.1 406.525 148.69 406.525 146.364ZM405.439 146.364C405.439 148.136 404.501 149.098 403.251 149.098C401.998 149.098 401.064 148.136 401.064 146.364C401.064 144.592 401.998 143.629 403.251 143.629C404.501 143.629 405.439 144.592 405.439 146.364Z" fill="white"/>
    <path d="M408.732 143.672H410.998V150H412.092V143.672H414.361V142.727H408.732V143.672Z" fill="white"/>
    <path d="M417.104 150H421.707V149.055H418.202V146.829H421.426V145.888H418.202V143.672H421.664V142.727H417.104V150Z" fill="white"/>
    <path d="M424.079 150H424.392C426.047 150 426.445 148.771 426.54 146.435L426.654 143.658H429.136V150H430.219V142.727H425.621L425.496 146.144C425.418 148.249 425.163 149.02 424.293 149.041L424.079 149.048V150Z" fill="white"/>
    <path d="M434.425 145.661V142.727H433.324V150H436.048C437.668 150 438.594 149.098 438.591 147.795C438.594 146.495 437.668 145.661 436.048 145.661H434.425ZM434.425 146.584H436.048C436.989 146.584 437.508 147.124 437.508 147.781C437.508 148.455 436.989 149.077 436.048 149.077H434.425V146.584Z" fill="white"/>
    <path d="M441.429 150H442.526V146.829H446.152V150H447.253V142.727H446.152V145.888H442.526V142.727H441.429V150Z" fill="white"/>
    <path d="M450.351 142.727V150H451.359L455.056 144.666H455.123V150H456.221V142.727H455.205L451.505 148.068H451.437V142.727H450.351Z" fill="white"/>
    <path d="M459.467 142.727V145.128C459.463 146.751 460.447 147.39 462.038 147.39C462.737 147.39 463.341 147.301 463.863 147.152V150H464.95V142.727H463.863V146.215C463.32 146.36 462.645 146.449 462.038 146.449C461.09 146.449 460.55 146.129 460.55 145.128V142.727H459.467Z" fill="white"/>
    <path d="M471.264 145.906H468.04V146.825H471.264V145.906Z" fill="white"/>
    <path d="M476.722 142.727H475.699C475.66 142.926 475.106 143.846 474.044 143.846V144.748C474.868 144.748 475.44 144.421 475.561 144.208H475.621V150H476.722V142.727Z" fill="white"/>
    <path d="M528.334 181.727H523.799V189H524.896V182.672H528.334V181.727Z" fill="white"/>
    <path d="M530.52 189H530.832C532.487 189 532.885 187.771 532.981 185.435L533.094 182.658H535.577V189H536.66V181.727H532.061L531.937 185.144C531.859 187.249 531.603 188.02 530.733 188.041L530.52 188.048V189Z" fill="white"/>
    <path d="M540.372 189L541.04 187.075H543.881L544.545 189H545.71L543.092 181.727H541.825L539.207 189H540.372ZM541.359 186.152L542.432 183.048H542.489L543.561 186.152H541.359Z" fill="white"/>
    <path d="M550.692 189.1C552.177 189.1 553.267 188.212 553.263 187.004C553.267 186.085 552.709 185.424 551.743 185.275V185.218C552.503 185.023 552.997 184.426 552.993 183.609C552.997 182.541 552.12 181.628 550.721 181.628C549.385 181.628 548.313 182.434 548.278 183.617H549.339C549.364 182.949 549.993 182.544 550.706 182.544C551.449 182.544 551.935 182.995 551.932 183.666C551.935 184.369 551.371 184.831 550.564 184.831H549.95V185.726H550.564C551.573 185.726 552.155 186.237 552.155 186.969C552.155 187.676 551.541 188.155 550.685 188.155C549.897 188.155 549.282 187.75 549.24 187.104H548.125C548.171 188.29 549.222 189.1 550.692 189.1Z" fill="white"/>
    <path d="M562.523 185.364C562.523 183.038 561.131 181.628 559.248 181.628C557.359 181.628 555.971 183.038 555.971 185.364C555.971 187.686 557.359 189.1 559.248 189.1C561.131 189.1 562.523 187.69 562.523 185.364ZM561.436 185.364C561.436 187.136 560.498 188.098 559.248 188.098C557.995 188.098 557.061 187.136 557.061 185.364C557.061 183.592 557.995 182.629 559.248 182.629C560.498 182.629 561.436 183.592 561.436 185.364Z" fill="white"/>
    <path d="M565.391 189H568.178C569.869 189 570.632 188.158 570.632 187.043C570.632 185.918 569.844 185.282 569.123 185.243V185.172C569.79 185.002 570.348 184.547 570.348 183.638C570.348 182.562 569.602 181.727 568.054 181.727H565.391V189ZM566.488 188.059V185.729H568.111C568.991 185.729 569.542 186.298 569.542 186.99C569.542 187.601 569.126 188.059 568.072 188.059H566.488ZM566.488 184.874V182.661H567.987C568.857 182.661 569.272 183.119 569.272 183.723C569.272 184.426 568.697 184.874 567.958 184.874H566.488Z" fill="white"/>
    <path d="M531.565 117.251H525.954V124.524H527.048V118.188H530.471V124.524H531.565V117.251Z" fill="white"/>
    <path d="M534.743 124.524H539.345V123.579H535.84V121.353H539.065V120.411H535.84V118.196H539.302V117.251H534.743V124.524Z" fill="white"/>
    <path d="M542.268 124.524H543.366V121.967H544.857C546.544 121.967 547.378 120.948 547.378 119.605C547.378 118.267 546.551 117.251 544.861 117.251H542.268V124.524ZM543.366 121.036V118.192H544.743C545.83 118.192 546.274 118.782 546.274 119.605C546.274 120.429 545.83 121.036 544.758 121.036H543.366Z" fill="white"/>
    <path d="M550.165 117.251V124.524H551.209V119.257H551.276L553.421 124.513H554.288L556.432 119.261H556.5V124.524H557.544V117.251H556.212L553.897 122.904H553.812L551.496 117.251H550.165Z" fill="white"/>
    <path d="M561.933 120.184V117.251H560.832V124.524H563.556C565.175 124.524 566.102 123.622 566.098 122.318C566.102 121.019 565.175 120.184 563.556 120.184H561.933ZM561.933 121.108H563.556C564.497 121.108 565.015 121.647 565.015 122.304C565.015 122.979 564.497 123.6 563.556 123.6H561.933V121.108Z" fill="white"/>
    <path d="M598.44 155.672H600.706V162H601.8V155.672H604.069V154.727H598.44V155.672Z" fill="white"/>
    <path d="M607.91 154.727H606.813V162H607.91V158.911H609.185C609.384 160.906 610.698 162.1 612.434 162.1C614.316 162.1 615.708 160.69 615.708 158.364C615.708 156.038 614.316 154.628 612.434 154.628C610.648 154.628 609.309 155.889 609.167 157.991H607.91V154.727ZM614.622 158.364C614.622 160.136 613.684 161.098 612.434 161.098C611.181 161.098 610.247 160.136 610.247 158.364C610.247 156.592 611.181 155.629 612.434 155.629C613.684 155.629 614.622 156.592 614.622 158.364Z" fill="white"/>
    <path d="M618.391 154.727V162H619.435V156.734H619.502L621.647 161.989H622.514L624.659 156.737H624.726V162H625.77V154.727H624.438L622.123 160.381H622.038L619.723 154.727H618.391Z" fill="white"/>
    <path d="M629.051 162H633.653V161.055H630.148V158.829H633.373V157.888H630.148V155.672H633.611V154.727H629.051V162Z" fill="white"/>
    <path d="M636.576 162H637.674V158.829H641.299V162H642.4V154.727H641.299V157.888H637.674V154.727H636.576V162Z" fill="white"/>
    <path d="M646.606 157.661V154.727H645.505V162H648.229C649.848 162 650.775 161.098 650.772 159.795C650.775 158.495 649.848 157.661 648.229 157.661H646.606ZM646.606 158.584H648.229C649.17 158.584 649.689 159.124 649.689 159.781C649.689 160.455 649.17 161.077 648.229 161.077H646.606V158.584Z" fill="white"/>
    <path d="M697.454 180.364C697.454 178.038 696.062 176.628 694.18 176.628C692.291 176.628 690.902 178.038 690.902 180.364C690.902 182.686 692.291 184.1 694.18 184.1C696.062 184.1 697.454 182.69 697.454 180.364ZM696.368 180.364C696.368 182.136 695.43 183.098 694.18 183.098C692.926 183.098 691.993 182.136 691.993 180.364C691.993 178.592 692.926 177.629 694.18 177.629C695.43 177.629 696.368 178.592 696.368 180.364Z" fill="white"/>
    <path d="M700.322 176.727V184H701.366V178.734H701.434L703.579 183.989H704.445L706.59 178.737H706.657V184H707.702V176.727H706.37L704.055 182.381H703.969L701.654 176.727H700.322Z" fill="white"/>
    <path d="M717.023 179.092C716.774 177.537 715.556 176.628 714.019 176.628C712.137 176.628 710.748 178.038 710.748 180.364C710.748 182.69 712.129 184.1 714.019 184.1C715.617 184.1 716.785 183.098 717.023 181.66L715.915 181.656C715.727 182.587 714.945 183.098 714.026 183.098C712.779 183.098 711.838 182.143 711.838 180.364C711.838 178.599 712.776 177.629 714.029 177.629C714.956 177.629 715.734 178.151 715.915 179.092H717.023Z" fill="white"/>
    <path d="M724.143 184H725.482L722.482 180.016L725.5 176.727H724.14L721.31 179.799H720.933V176.727H719.836V184H720.933V180.74H721.686L724.143 184Z" fill="white"/>
    <path d="M805.378 105H806.717L803.716 101.016L806.734 97.7274H805.374L802.544 100.799H802.168V97.7274H801.07V105H802.168V101.74H802.92L805.378 105Z" fill="white"/>
    <path d="M809.328 105H810.425V102.443H811.917C813.604 102.443 814.438 101.424 814.438 100.082C814.438 98.743 813.611 97.7274 811.92 97.7274H809.328V105ZM810.425 101.513V98.6684H811.803C812.89 98.6684 813.334 99.2579 813.334 100.082C813.334 100.906 812.89 101.513 811.817 101.513H810.425Z" fill="white"/>
    <path d="M817.067 105L817.735 103.075H820.576L821.24 105H822.405L819.788 97.7274H818.52L815.903 105H817.067ZM818.055 102.152L819.127 99.0484H819.184L820.256 102.152H818.055Z" fill="white"/>
    <path d="M830.654 100.092C830.405 98.537 829.187 97.6279 827.65 97.6279C825.767 97.6279 824.379 99.0377 824.379 101.364C824.379 103.69 825.76 105.1 827.65 105.1C829.248 105.1 830.416 104.098 830.654 102.66L829.546 102.656C829.358 103.587 828.576 104.098 827.657 104.098C826.41 104.098 825.469 103.143 825.469 101.364C825.469 99.5988 826.407 98.6294 827.66 98.6294C828.587 98.6294 829.365 99.1514 829.546 100.092H830.654Z" fill="white"/>
    <path d="M833.467 105H834.564V101.829H838.19V105H839.291V97.7274H838.19V100.888H834.564V97.7274H833.467V105Z" fill="white"/>
    <path d="M848.706 101.364C848.706 99.0377 847.314 97.6279 845.432 97.6279C843.543 97.6279 842.154 99.0377 842.154 101.364C842.154 103.686 843.543 105.1 845.432 105.1C847.314 105.1 848.706 103.69 848.706 101.364ZM847.619 101.364C847.619 103.136 846.682 104.098 845.432 104.098C844.178 104.098 843.244 103.136 843.244 101.364C843.244 99.5917 844.178 98.6294 845.432 98.6294C846.682 98.6294 847.619 99.5917 847.619 101.364Z" fill="white"/>
    <path d="M856.425 105V97.7274H853.833C852.146 97.7274 851.315 98.6684 851.315 100.007C851.315 100.984 851.759 101.726 852.65 102.056L851.038 105H852.288L853.765 102.248C853.79 102.248 853.811 102.248 853.836 102.248H855.328V105H856.425ZM855.328 101.303H853.936C852.867 101.303 852.419 100.828 852.419 100.007C852.419 99.1833 852.867 98.6684 853.95 98.6684H855.328V101.303Z" fill="white"/>
    <path d="M859.52 105H860.617V102.443H862.108C863.795 102.443 864.63 101.424 864.63 100.082C864.63 98.743 863.802 97.7274 862.112 97.7274H859.52V105ZM860.617 101.513V98.6684H861.995C863.081 98.6684 863.525 99.2579 863.525 100.082C863.525 100.906 863.081 101.513 862.009 101.513H860.617Z" fill="white"/>
    <path d="M873.456 100.092C873.208 98.537 871.99 97.6279 870.452 97.6279C868.57 97.6279 867.182 99.0377 867.182 101.364C867.182 103.69 868.563 105.1 870.452 105.1C872.05 105.1 873.219 104.098 873.456 102.66L872.349 102.656C872.16 103.587 871.379 104.098 870.459 104.098C869.213 104.098 868.272 103.143 868.272 101.364C868.272 99.5988 869.209 98.6294 870.463 98.6294C871.39 98.6294 872.167 99.1514 872.349 100.092H873.456Z" fill="white"/>
    <path d="M880.577 105H881.916L878.915 101.016L881.934 97.7274H880.574L877.743 100.799H877.367V97.7274H876.27V105H877.367V101.74H878.12L880.577 105Z" fill="white"/>
    <path d="M875.893 162.1H876.39C877.526 162.1 877.903 161.464 878.222 160.739L880.737 154.727H879.586L877.889 158.932L875.982 154.727H874.817L877.374 160.185L877.271 160.445C877.114 160.825 876.873 161.134 876.33 161.134H875.893V162.1Z" fill="white"/>
    <path d="M882.724 162H883.037C884.691 162 885.089 160.771 885.185 158.435L885.299 155.658H887.781V162H888.864V154.727H884.265L884.141 158.144C884.063 160.249 883.807 161.02 882.937 161.041L882.724 161.048V162Z" fill="white"/>
    <path d="M892.576 162L893.244 160.075H896.085L896.749 162H897.914L895.296 154.727H894.029L891.412 162H892.576ZM893.564 159.152L894.636 156.048H894.693L895.765 159.152H893.564Z" fill="white"/>
    <path d="M900.464 162H901.561V158.829H905.187V162H906.288V154.727H905.187V157.888H901.561V154.727H900.464V162Z" fill="white"/>
    <path d="M912.514 157.906H909.29V158.825H912.514V157.906Z" fill="white"/>
    <path d="M915.395 162.1H915.892C917.028 162.1 917.405 161.464 917.724 160.739L920.239 154.727H919.088L917.391 158.932L915.484 154.727H914.319L916.876 160.185L916.773 160.445C916.616 160.825 916.375 161.134 915.832 161.134H915.395V162.1Z" fill="white"/>
    <path d="M922.226 163.758H923.277V162H928.16V163.747H929.211V161.07H928.387V154.727H923.902L923.732 157.799C923.622 159.823 923.192 160.658 922.705 161.07H922.226V163.758ZM923.998 161.07C924.413 160.406 924.694 159.337 924.783 157.799L924.896 155.672H927.336V161.07H923.998Z" fill="white"/>
    <path d="M931.682 159.692C931.821 161.07 932.723 162.1 934.477 162.1C936.231 162.1 937.353 160.789 937.353 158.751V157.994C937.353 155.956 936.217 154.628 934.417 154.628C932.705 154.628 931.821 155.672 931.679 157.078H932.797C932.911 156.134 933.355 155.573 934.417 155.573C935.585 155.573 936.238 156.517 936.242 157.987H933.561V158.918H936.238C936.192 160.2 935.631 161.169 934.477 161.169C933.387 161.169 932.922 160.651 932.797 159.692H931.682Z" fill="white"/>
    <path d="M106.743 34.3367C106.743 36.2657 105.179 37.8296 103.25 37.8296C101.321 37.8296 99.7573 36.2657 99.7573 34.3367C99.7573 32.4076 101.321 30.8438 103.25 30.8438C105.179 30.8438 106.743 32.4076 106.743 34.3367Z" fill="#272722"/>
    <path fill-rule="evenodd" clip-rule="evenodd" d="M103.25 36.8296C104.627 36.8296 105.743 35.7135 105.743 34.3367C105.743 32.9599 104.627 31.8438 103.25 31.8438C101.873 31.8438 100.757 32.9599 100.757 34.3367C100.757 35.7135 101.873 36.8296 103.25 36.8296ZM103.25 37.8296C105.179 37.8296 106.743 36.2657 106.743 34.3367C106.743 32.4076 105.179 30.8438 103.25 30.8438C101.321 30.8438 99.7573 32.4076 99.7573 34.3367C99.7573 36.2657 101.321 37.8296 103.25 37.8296Z" fill="white"/>
    <path d="M20.9858 115.493C20.9858 117.422 19.422 118.986 17.4929 118.986C15.5638 118.986 14 117.422 14 115.493C14 113.564 15.5638 112 17.4929 112C19.422 112 20.9858 113.564 20.9858 115.493Z" fill="#131313"/>
    <path fill-rule="evenodd" clip-rule="evenodd" d="M17.4929 117.986C18.8697 117.986 19.9858 116.87 19.9858 115.493C19.9858 114.116 18.8697 113 17.4929 113C16.1161 113 15 114.116 15 115.493C15 116.87 16.1161 117.986 17.4929 117.986ZM17.4929 118.986C19.422 118.986 20.9858 117.422 20.9858 115.493C20.9858 113.564 19.422 112 17.4929 112C15.5638 112 14 113.564 14 115.493C14 117.422 15.5638 118.986 17.4929 118.986Z" fill="white"/>
    <path d="M215.023 156.59C215.023 158.519 213.459 160.083 211.53 160.083C209.601 160.083 208.037 158.519 208.037 156.59C208.037 154.661 209.601 153.097 211.53 153.097C213.459 153.097 215.023 154.661 215.023 156.59Z" fill="#4D5648"/>
    <path fill-rule="evenodd" clip-rule="evenodd" d="M211.53 159.083C212.907 159.083 214.023 157.966 214.023 156.59C214.023 155.213 212.907 154.097 211.53 154.097C210.153 154.097 209.037 155.213 209.037 156.59C209.037 157.966 210.153 159.083 211.53 159.083ZM211.53 160.083C213.459 160.083 215.023 158.519 215.023 156.59C215.023 154.661 213.459 153.097 211.53 153.097C209.601 153.097 208.037 154.661 208.037 156.59C208.037 158.519 209.601 160.083 211.53 160.083Z" fill="white"/>
    <path d="M247.333 178.421C247.333 180.35 245.769 181.914 243.84 181.914C241.911 181.914 240.347 180.35 240.347 178.421C240.347 176.492 241.911 174.928 243.84 174.928C245.769 174.928 247.333 176.492 247.333 178.421Z" fill="#47443E"/>
    <path fill-rule="evenodd" clip-rule="evenodd" d="M243.84 180.914C245.216 180.914 246.333 179.797 246.333 178.421C246.333 177.044 245.216 175.928 243.84 175.928C242.463 175.928 241.347 177.044 241.347 178.421C241.347 179.797 242.463 180.914 243.84 180.914ZM243.84 181.914C245.769 181.914 247.333 180.35 247.333 178.421C247.333 176.492 245.769 174.928 243.84 174.928C241.911 174.928 240.347 176.492 240.347 178.421C240.347 180.35 241.911 181.914 243.84 181.914Z" fill="white"/>
    <path d="M335.529 127.773C335.529 129.702 333.965 131.266 332.036 131.266C330.107 131.266 328.543 129.702 328.543 127.773C328.543 125.844 330.107 124.28 332.036 124.28C333.965 124.28 335.529 125.844 335.529 127.773Z" fill="#93A47C"/>
    <path fill-rule="evenodd" clip-rule="evenodd" d="M332.036 130.266C333.413 130.266 334.529 129.15 334.529 127.773C334.529 126.396 333.413 125.28 332.036 125.28C330.659 125.28 329.543 126.396 329.543 127.773C329.543 129.15 330.659 130.266 332.036 130.266ZM332.036 131.266C333.965 131.266 335.529 129.702 335.529 127.773C335.529 125.844 333.965 124.28 332.036 124.28C330.107 124.28 328.543 125.844 328.543 127.773C328.543 129.702 330.107 131.266 332.036 131.266Z" fill="white"/>
    <path d="M413.246 161.83C413.246 163.759 411.682 165.323 409.753 165.323C407.824 165.323 406.26 163.759 406.26 161.83C406.26 159.901 407.824 158.337 409.753 158.337C411.682 158.337 413.246 159.901 413.246 161.83Z" fill="#738F8C"/>
    <path fill-rule="evenodd" clip-rule="evenodd" d="M409.753 164.323C411.13 164.323 412.246 163.207 412.246 161.83C412.246 160.453 411.13 159.337 409.753 159.337C408.376 159.337 407.26 160.453 407.26 161.83C407.26 163.207 408.376 164.323 409.753 164.323ZM409.753 165.323C411.682 165.323 413.246 163.759 413.246 161.83C413.246 159.901 411.682 158.337 409.753 158.337C407.824 158.337 406.26 159.901 406.26 161.83C406.26 163.759 407.824 165.323 409.753 165.323Z" fill="white"/>
    <path d="M515.414 185.406C515.414 187.335 513.85 188.899 511.921 188.899C509.992 188.899 508.428 187.335 508.428 185.406C508.428 183.477 509.992 181.913 511.921 181.913C513.85 181.913 515.414 183.477 515.414 185.406Z" fill="#789186"/>
    <path fill-rule="evenodd" clip-rule="evenodd" d="M511.921 187.899C513.297 187.899 514.414 186.783 514.414 185.406C514.414 184.029 513.297 182.913 511.921 182.913C510.544 182.913 509.428 184.029 509.428 185.406C509.428 186.783 510.544 187.899 511.921 187.899ZM511.921 188.899C513.85 188.899 515.414 187.335 515.414 185.406C515.414 183.477 513.85 181.913 511.921 181.913C509.992 181.913 508.428 183.477 508.428 185.406C508.428 187.335 509.992 188.899 511.921 188.899Z" fill="white"/>
    <path d="M548.596 133.886C548.596 135.816 547.032 137.379 545.103 137.379C543.174 137.379 541.61 135.816 541.61 133.886C541.61 131.957 543.174 130.394 545.103 130.394C547.032 130.394 548.596 131.957 548.596 133.886Z" fill="#8CBABB"/>
    <path fill-rule="evenodd" clip-rule="evenodd" d="M545.103 136.379C546.48 136.379 547.596 135.263 547.596 133.886C547.596 132.51 546.48 131.394 545.103 131.394C543.726 131.394 542.61 132.51 542.61 133.886C542.61 135.263 543.726 136.379 545.103 136.379ZM545.103 137.379C547.032 137.379 548.596 135.816 548.596 133.886C548.596 131.957 547.032 130.394 545.103 130.394C543.174 130.394 541.61 131.957 541.61 133.886C541.61 135.816 543.174 137.379 545.103 137.379Z" fill="white"/>
    <path d="M605.356 173.181C605.356 175.11 603.793 176.674 601.864 176.674C599.934 176.674 598.371 175.11 598.371 173.181C598.371 171.252 599.934 169.688 601.864 169.688C603.793 169.688 605.356 171.252 605.356 173.181Z" fill="#414847"/>
    <path fill-rule="evenodd" clip-rule="evenodd" d="M601.864 175.674C603.24 175.674 604.356 174.558 604.356 173.181C604.356 171.805 603.24 170.688 601.864 170.688C600.487 170.688 599.371 171.805 599.371 173.181C599.371 174.558 600.487 175.674 601.864 175.674ZM601.864 176.674C603.793 176.674 605.356 175.11 605.356 173.181C605.356 171.252 603.793 169.688 601.864 169.688C599.934 169.688 598.371 171.252 598.371 173.181C598.371 175.11 599.934 176.674 601.864 176.674Z" fill="white"/>
    <path d="M711.017 160.083C711.017 162.012 709.453 163.576 707.524 163.576C705.595 163.576 704.031 162.012 704.031 160.083C704.031 158.154 705.595 156.59 707.524 156.59C709.453 156.59 711.017 158.154 711.017 160.083Z" fill="#577379"/>
    <path fill-rule="evenodd" clip-rule="evenodd" d="M707.524 162.576C708.9 162.576 710.017 161.46 710.017 160.083C710.017 158.706 708.9 157.59 707.524 157.59C706.147 157.59 705.031 158.706 705.031 160.083C705.031 161.46 706.147 162.576 707.524 162.576ZM707.524 163.576C709.453 163.576 711.017 162.012 711.017 160.083C711.017 158.154 709.453 156.59 707.524 156.59C705.595 156.59 704.031 158.154 704.031 160.083C704.031 162.012 705.595 163.576 707.524 163.576Z" fill="white"/>
    <path d="M845.947 112.928C845.947 114.858 844.383 116.421 842.454 116.421C840.525 116.421 838.961 114.858 838.961 112.928C838.961 110.999 840.525 109.436 842.454 109.436C844.383 109.436 845.947 110.999 845.947 112.928Z" fill="#3E403A"/>
    <path fill-rule="evenodd" clip-rule="evenodd" d="M842.454 115.421C843.831 115.421 844.947 114.305 844.947 112.928C844.947 111.552 843.831 110.436 842.454 110.436C841.077 110.436 839.961 111.552 839.961 112.928C839.961 114.305 841.077 115.421 842.454 115.421ZM842.454 116.421C844.383 116.421 845.947 114.858 845.947 112.928C845.947 110.999 844.383 109.436 842.454 109.436C840.525 109.436 838.961 110.999 838.961 112.928C838.961 114.858 840.525 116.421 842.454 116.421Z" fill="white"/>
    <path d="M908.986 140.493C908.986 142.422 907.422 143.986 905.493 143.986C903.564 143.986 902 142.422 902 140.493C902 138.564 903.564 137 905.493 137C907.422 137 908.986 138.564 908.986 140.493Z" fill="#181A19"/>
    <path fill-rule="evenodd" clip-rule="evenodd" d="M905.493 142.986C906.87 142.986 907.986 141.87 907.986 140.493C907.986 139.116 906.87 138 905.493 138C904.116 138 903 139.116 903 140.493C903 141.87 904.116 142.986 905.493 142.986ZM905.493 143.986C907.422 143.986 908.986 142.422 908.986 140.493C908.986 138.564 907.422 137 905.493 137C903.564 137 902 138.564 902 140.493C902 142.422 903.564 143.986 905.493 143.986Z" fill="white"/>
</svg>
