<svg class="lead__image lead__image_vector_line"  width="887" height="194" viewBox="0 0 887 194" fill="none" xmlns="http://www.w3.org/2000/svg">
<path fill-rule="evenodd" clip-rule="evenodd" d="M886.5 107.284C886.5 107.56 886.276 107.784 886 107.784C878.235 107.784 874.096 109.499 867.479 112.243C866.962 112.457 866.429 112.678 865.879 112.904C864.957 113.284 863.907 113.05 862.858 112.512C861.799 111.968 860.642 111.066 859.437 109.937C857.022 107.676 854.319 104.416 851.681 101.004C849.912 98.7162 848.16 96.3443 846.538 94.1469C845.74 93.067 844.974 92.0291 844.252 91.0641C843.153 89.5961 842.158 88.2966 841.305 87.2637C840.443 86.2204 839.756 85.4837 839.27 85.1124C826.304 75.197 808.184 83.2711 805.081 97.2363C804.317 100.676 803.492 103.261 802.594 105.156C801.697 107.048 800.709 108.293 799.596 109C797.323 110.444 794.799 109.501 792.231 108.122C791.465 107.71 790.686 107.256 789.889 106.79C787.925 105.644 785.847 104.432 783.566 103.632C780.406 102.523 776.935 102.247 773.06 104.184C771.877 104.776 770.211 106.187 768.343 108.027C766.49 109.852 764.485 112.051 762.63 114.168C760.779 116.281 759.082 118.305 757.843 119.784L757.838 119.79C757.219 120.529 756.712 121.134 756.358 121.544C756.182 121.747 756.038 121.91 755.935 122.018C755.887 122.069 755.832 122.123 755.781 122.165L755.78 122.166C755.763 122.179 755.701 122.231 755.614 122.264C755.58 122.276 755.431 122.332 755.252 122.264C755.015 122.174 754.944 121.963 754.93 121.854C754.311 116.902 751.533 111.563 747.621 107.662C743.706 103.759 738.733 101.368 733.74 102.136C725.661 103.379 720.995 108.254 717.106 114.12C715.862 115.997 714.711 117.952 713.553 119.92C712.89 121.047 712.224 122.178 711.537 123.301C709.662 126.366 707.648 129.332 705.162 131.817C704.855 132.125 704.512 132.322 704.136 132.393C703.762 132.463 703.401 132.4 703.071 132.266C702.434 132.009 701.836 131.458 701.306 130.899C701.035 130.613 700.766 130.308 700.508 130.014L700.506 130.012C700.246 129.717 699.998 129.434 699.755 129.179C699.511 128.922 699.285 128.705 699.073 128.539C698.858 128.371 698.683 128.276 698.546 128.237C696.67 127.701 694.151 127.578 691.597 127.717C689.05 127.856 686.513 128.251 684.619 128.725C681.58 129.485 677.722 131.484 673.414 134.031C671.076 135.413 668.644 136.933 666.157 138.488C664.049 139.805 661.902 141.147 659.738 142.451C655.055 145.275 650.359 147.88 646.073 149.503C641.806 151.118 637.841 151.799 634.674 150.633C632.253 149.74 630.116 148.788 628.105 147.864C627.752 147.702 627.403 147.542 627.057 147.382C625.43 146.631 623.873 145.913 622.282 145.269C618.441 143.715 614.42 142.603 608.893 142.603C606.352 142.603 604.918 143.146 603.967 143.818C603.485 144.159 603.109 144.544 602.766 144.946C602.616 145.121 602.476 145.296 602.333 145.474L602.266 145.557C602.102 145.761 601.933 145.968 601.756 146.164C601.399 146.56 600.992 146.933 600.457 147.201C599.919 147.47 599.283 147.618 598.488 147.612C596.925 147.598 594.704 146.983 591.281 145.462C586.167 143.189 581.576 139.549 577.041 135.774C576.511 135.333 575.981 134.89 575.452 134.447C571.435 131.084 567.415 127.718 563.019 125.124C561.581 124.275 559.038 122.422 555.826 120.082C554.707 119.266 553.506 118.391 552.243 117.479C547.332 113.933 541.431 109.792 535.528 106.256C529.615 102.715 523.743 99.8072 518.884 98.6979C516.456 98.1435 514.324 98.0486 512.582 98.514C510.862 98.974 509.499 99.986 508.584 101.714C505.827 106.923 506.022 112.656 506.222 118.513C506.238 118.97 506.253 119.428 506.267 119.887C506.462 126.166 506.391 132.526 502.089 138.058C496.097 145.762 491.877 155.292 491.877 165.316C491.877 167.865 491.135 175.416 490.019 182.005C489.461 185.3 488.804 188.386 488.09 190.5C487.738 191.545 487.352 192.411 486.923 192.94C486.708 193.204 486.437 193.442 486.098 193.527C485.724 193.62 485.376 193.502 485.092 193.266C482.369 190.996 477.831 189.873 472.343 189.317C467.648 188.842 462.348 188.788 457.051 188.734C456.18 188.725 455.31 188.717 454.442 188.706C448.314 188.63 442.318 188.461 437.501 187.519C432.714 186.583 428.904 184.847 427.407 181.478C426.476 179.386 426.088 177.363 425.819 175.524C425.757 175.102 425.701 174.693 425.648 174.296C425.465 172.942 425.302 171.735 424.966 170.656C424.544 169.297 423.861 168.199 422.539 167.383C421.193 166.553 419.138 165.986 415.908 165.816C411.332 165.575 408.231 164.762 406.128 163.381C403.999 161.982 402.951 160.041 402.395 157.697C401.915 155.676 401.793 153.312 401.659 150.709C401.639 150.333 401.62 149.952 401.599 149.566C401.431 146.489 401.175 143.059 400.295 139.316C400.153 138.713 400.008 137.821 399.844 136.807C399.796 136.511 399.746 136.205 399.694 135.892C399.463 134.493 399.185 132.942 398.819 131.535C398.449 130.114 398.003 128.897 397.459 128.129C397.19 127.749 396.922 127.516 396.664 127.404C396.422 127.299 396.148 127.283 395.804 127.416C387.485 130.651 378.93 132.916 370.349 135.186L369.797 135.332C363.018 137.127 358.363 138.098 355.078 138.242C351.776 138.387 349.75 137.699 348.356 136.067C347.677 135.272 347.172 134.28 346.732 133.128C346.291 131.976 345.902 130.632 345.47 129.121L345.416 128.932C344.557 125.934 343.496 122.227 341.487 117.807C339.75 113.985 337.341 111.365 334.591 109.019C333.36 107.968 332.065 106.977 330.728 105.953C330.568 105.829 330.406 105.706 330.244 105.581C328.739 104.427 327.19 103.221 325.651 101.854C324.534 100.861 322.772 99.8202 320.7 98.7154C319.791 98.2306 318.807 97.7257 317.8 97.2096C316.565 96.576 315.297 95.9255 314.094 95.2743C311.883 94.0779 309.767 92.8147 308.156 91.4752C306.56 90.1479 305.369 88.6718 305.176 87.0305C304.787 83.7312 303.482 82.2104 301.809 81.6612C300.064 81.0879 297.749 81.5073 295.23 82.5125C290.219 84.5126 284.829 88.6505 282.61 90.4253C279.905 92.5896 277.228 94.7 274.587 96.7824C255.243 112.034 237.806 125.782 225.022 148.155L224.926 148.322C223.754 150.376 219.684 157.506 215.74 162.098C214.724 163.282 213.701 164.315 212.724 165.052C211.763 165.777 210.773 166.272 209.837 166.251C208.835 166.23 208.04 165.629 207.494 164.516C206.96 163.428 206.63 161.796 206.517 159.538C206.178 152.759 203.685 145.513 200.463 138.476C197.946 132.979 195 127.642 192.315 122.777C191.562 121.414 190.831 120.088 190.134 118.806C177.019 94.6569 162.479 69.7751 139.67 53.852C138.015 52.6967 136.536 51.6901 135.194 50.7771C131.62 48.3449 129.022 46.5772 126.684 44.4343C123.447 41.4668 120.704 37.7823 116.474 30.645C116.162 30.1179 115.848 29.587 115.533 29.0535C111.217 21.7479 106.606 13.9416 100.92 8.55795C97.8776 5.6775 94.55 3.5139 90.8226 2.49156C87.1022 1.47113 82.9471 1.57748 78.2255 3.29442C76.5808 3.89249 74.8215 5.10577 73.0311 6.71287C71.2457 8.31549 69.4563 10.285 67.7497 12.3627C64.965 15.7529 62.4245 19.4003 60.4942 22.1718C60.0568 22.7999 59.6506 23.383 59.2801 23.9079C45.4955 43.436 27.8332 58.6632 9.96283 74.0699C7.08514 76.5508 4.20202 79.0364 1.32885 81.5454C1.12085 81.727 0.804989 81.7056 0.623349 81.4976C0.441769 81.2896 0.463131 80.9738 0.671139 80.7922C3.55298 78.2756 6.4414 75.7852 9.32159 73.3019C27.1965 57.8901 44.7552 42.7508 58.4631 23.3313C58.8283 22.8139 59.2305 22.2365 59.665 21.6126C61.5949 18.8415 64.1641 15.1524 66.9769 11.728C68.7013 9.62876 70.5262 7.61747 72.3631 5.96869C74.1949 4.3244 76.0657 3.01574 77.8838 2.35463C82.7816 0.573587 87.1489 0.446995 91.0872 1.52718C95.0184 2.60545 98.4856 4.87601 101.607 7.8318C107.401 13.317 112.081 21.2422 116.377 28.5149C116.698 29.0591 117.017 29.5996 117.335 30.1352C121.549 37.2467 124.232 40.8301 127.36 43.6972C129.641 45.7876 132.155 47.4988 135.698 49.9097C137.049 50.8289 138.549 51.8497 140.242 53.032C163.269 69.1071 177.905 94.194 191.013 118.329C191.703 119.599 192.43 120.916 193.179 122.273C195.867 127.143 198.837 132.524 201.372 138.059C204.612 145.137 207.167 152.52 207.516 159.488C207.626 161.7 207.948 163.17 208.392 164.076C208.824 164.957 209.333 165.24 209.859 165.252C210.45 165.264 211.212 164.94 212.122 164.253C213.018 163.578 213.987 162.605 214.982 161.447C218.86 156.931 222.89 149.871 224.063 147.817L224.153 147.658C237.04 125.106 254.637 111.235 273.973 95.9925C276.614 93.9106 279.287 91.8031 281.985 89.6445C284.201 87.8717 289.695 83.6449 294.86 81.5838C297.429 80.5584 300.026 80.0231 302.121 80.7111C304.289 81.4232 305.753 83.3796 306.169 86.9136C306.315 88.1587 307.249 89.4205 308.795 90.7063C310.327 91.9797 312.371 93.2046 314.57 94.3948C315.789 95.0547 317.018 95.6848 318.228 96.305C319.228 96.8174 320.214 97.323 321.171 97.833C323.239 98.9356 325.099 100.025 326.316 101.107C327.825 102.448 329.35 103.634 330.853 104.788C331.015 104.912 331.177 105.036 331.338 105.16C332.672 106.182 333.988 107.19 335.24 108.258C338.057 110.662 340.58 113.394 342.398 117.394C344.438 121.881 345.516 125.648 346.374 128.648L346.431 128.846C346.866 130.366 347.244 131.667 347.666 132.771C348.087 133.873 348.542 134.745 349.116 135.418C350.229 136.72 351.888 137.381 355.035 137.243C358.199 137.104 362.758 136.161 369.541 134.366L370.071 134.226C378.668 131.95 387.176 129.699 395.442 126.484C396.01 126.263 396.558 126.269 397.061 126.486C397.547 126.697 397.946 127.086 398.275 127.551C398.93 128.475 399.411 129.842 399.786 131.283C400.165 132.737 400.449 134.326 400.681 135.729C400.735 136.057 400.787 136.374 400.836 136.676C400.999 137.68 401.135 138.522 401.268 139.087C402.17 142.919 402.429 146.421 402.597 149.512C402.618 149.902 402.638 150.286 402.658 150.661C402.794 153.279 402.911 155.541 403.368 157.466C403.883 159.638 404.819 161.324 406.677 162.545C408.562 163.783 411.453 164.58 415.961 164.817C419.263 164.991 421.512 165.575 423.064 166.532C424.639 167.504 425.445 168.829 425.921 170.359C426.284 171.526 426.462 172.846 426.647 174.217C426.699 174.601 426.751 174.989 426.808 175.379C427.073 177.187 427.445 179.104 428.32 181.072C429.602 183.955 432.95 185.61 437.693 186.538C442.407 187.46 448.314 187.63 454.454 187.706C455.317 187.717 456.185 187.725 457.054 187.734C462.347 187.788 467.699 187.842 472.444 188.322C477.947 188.88 482.758 190.019 485.733 192.498C485.826 192.576 485.855 192.557 485.855 192.556C485.891 192.548 485.992 192.5 486.147 192.309C486.455 191.929 486.795 191.21 487.143 190.18C487.83 188.145 488.476 185.123 489.033 181.838C490.145 175.27 490.877 167.782 490.877 165.316C490.877 155.012 495.211 145.272 501.299 137.444C505.359 132.224 505.463 126.207 505.268 119.918C505.253 119.448 505.237 118.976 505.221 118.503C505.02 112.699 504.812 106.702 507.7 101.246C508.75 99.2639 510.344 98.0772 512.324 97.548C514.284 97.0242 516.596 97.1497 519.106 97.723C524.126 98.869 530.11 101.846 536.041 105.398C541.983 108.957 547.912 113.119 552.828 116.668C554.119 117.601 555.338 118.488 556.467 119.311C559.656 121.635 562.134 123.44 563.527 124.263C567.999 126.902 572.086 130.324 576.095 133.681C576.625 134.124 577.153 134.566 577.681 135.005C582.22 138.784 586.715 142.338 591.687 144.548C595.09 146.061 597.151 146.6 598.497 146.612C599.156 146.617 599.632 146.495 600.009 146.306C600.389 146.116 600.7 145.842 601.013 145.495C601.17 145.321 601.323 145.133 601.487 144.93C601.649 144.729 601.821 144.513 602.006 144.297C602.378 143.861 602.815 143.408 603.39 143.002C604.551 142.181 606.202 141.603 608.893 141.603C614.576 141.603 618.726 142.751 622.657 144.342C624.273 144.996 625.855 145.726 627.484 146.478C627.828 146.636 628.173 146.796 628.522 146.956C630.527 147.876 632.636 148.816 635.02 149.694C637.833 150.73 641.504 150.163 645.719 148.567C649.916 146.979 654.547 144.413 659.222 141.595C661.345 140.315 663.49 138.975 665.604 137.654C668.113 136.086 670.577 134.547 672.905 133.17C677.208 130.625 681.18 128.554 684.376 127.755C686.336 127.265 688.937 126.86 691.543 126.719C694.14 126.577 696.788 126.695 698.82 127.275C699.133 127.365 699.425 127.545 699.689 127.752C699.956 127.961 700.222 128.218 700.48 128.49C700.736 128.759 700.995 129.054 701.25 129.344L701.259 129.354C701.519 129.65 701.775 129.94 702.032 130.211C702.558 130.765 703.028 131.17 703.446 131.339C703.644 131.419 703.808 131.437 703.951 131.41C704.093 131.383 704.261 131.304 704.455 131.11C706.855 128.71 708.82 125.825 710.684 122.779C711.351 121.688 712.009 120.571 712.669 119.45C713.838 117.463 715.016 115.463 716.272 113.568C720.227 107.603 725.102 102.453 733.588 101.147C739.007 100.314 744.28 102.92 748.327 106.954C752.109 110.725 754.886 115.806 755.765 120.699C756.1 120.307 756.542 119.779 757.071 119.148L757.078 119.14C758.317 117.661 760.019 115.63 761.878 113.509C763.739 111.385 765.763 109.165 767.641 107.315C769.504 105.479 771.271 103.96 772.612 103.29C776.783 101.205 780.544 101.512 783.897 102.688C786.275 103.522 788.488 104.813 790.48 105.976C791.256 106.429 791.999 106.862 792.704 107.241C795.304 108.637 797.321 109.26 799.059 108.156C799.951 107.589 800.835 106.531 801.69 104.727C802.543 102.927 803.348 100.423 804.105 97.0194C807.356 82.3875 826.293 73.9303 839.877 84.3181C840.464 84.7664 841.216 85.5851 842.076 86.627C842.945 87.6792 843.952 88.9945 845.052 90.465C845.782 91.44 846.552 92.4833 847.352 93.5662C848.971 95.7583 850.709 98.1129 852.472 100.393C855.106 103.799 857.768 107.005 860.12 109.208C861.298 110.31 862.376 111.14 863.315 111.622C864.265 112.109 864.979 112.194 865.498 111.98C866.052 111.752 866.589 111.529 867.111 111.312C873.729 108.568 878.032 106.784 886 106.784C886.276 106.784 886.5 107.007 886.5 107.284Z" fill="white"/>
</svg>
